<svg width="400" height="602" viewBox="0 0 400 602" fill="none" xmlns="http://www.w3.org/2000/svg">
<path d="M46.3808 356.134L46.4073 356.189L46.4199 356.249C63.6654 438.166 80.2685 496.066 111.477 535.077C142.641 574.031 188.431 594.216 264.252 600.521C344.873 583.527 421.593 531.462 473.858 463.189C526.139 394.896 553.91 310.441 536.705 228.716C519.501 146.994 460.566 83.4011 385.718 44.4777C310.87 5.55352 220.16 -8.67023 139.504 8.30987C99.1937 16.796 68.6314 33.2329 46.6016 55.4745C24.5717 77.7162 11.048 105.789 4.85847 137.591C-7.52397 201.21 9.45362 279.726 46.3808 356.134Z" stroke="#F8CABB"/>
</svg>
