<svg width="400" height="596" viewBox="0 0 400 596" fill="none" xmlns="http://www.w3.org/2000/svg">
<path d="M-106.557 316.259L-106.542 316.319V316.381C-106.542 398.685 -102.222 457.748 -79.7214 501.597C-57.2523 545.383 -16.6039 574.077 56.2953 595.5C138.69 595.48 224.492 560.927 289.701 505.829C354.929 450.715 399.5 375.091 399.5 292.987C399.5 210.887 354.933 137.772 289.71 85.1648C224.485 32.5574 138.65 0.5 56.2234 0.5C15.0284 0.5 -18.2657 10.1239 -44.4053 27.0603C-70.5446 43.9966 -89.5604 68.265 -102.168 97.6044C-127.389 156.299 -126.951 235.271 -106.557 316.259Z" stroke="#F8CABB"/>
</svg>
